<?xml version="1.0"?>

<svg version="1.1" id="Laag_1" xmlns="http://www.w3.org/2000/svg" xmlns:xlink="http://www.w3.org/1999/xlink" x="0px" y="0px" viewBox="0 0 1200 538" style="enable-background:new 0 0 1200 538;" xml:space="preserve">

<g>
&#x9;<g>
&#x9;&#x9;<path class="st0" d="M310.6,76.4H158c-14,0-25.4,11.4-25.4,25.4v152.6c0,14,11.4,25.4,25.4,25.4h152.6c14,0,25.4-11.4,25.4-25.4&#xA;&#x9;&#x9;&#x9;V101.9C336,87.8,324.6,76.5,310.6,76.4z M285.2,229.1H183.4V127.3h50.9v50.9h50.9V229.1z M310.6,152.7h-50.9v-50.9h50.9V152.7z"></path>
&#x9;&#x9;<polygon class="st0" points="413.6,116.9 386.9,116.9 386.9,238.3 463.2,238.3 463.2,213.6 413.6,213.6 &#x9;&#x9;"></polygon>
&#x9;&#x9;<path class="st0" d="M546.9,164.8c-3.4-3.8-7.6-6.9-12.3-8.8c-5.1-2.1-10.6-3.2-16.2-3.1c-6.2,0-12.3,1-18.1,3.1&#xA;&#x9;&#x9;&#x9;c-5.5,1.9-10.5,4.9-14.7,8.8c-4.2,3.9-7.5,8.6-9.8,13.8c-2.5,5.7-3.7,11.8-3.6,18c-0.1,6.2,1.1,12.3,3.6,18&#xA;&#x9;&#x9;&#x9;c2.3,5.2,5.7,9.9,9.9,13.8c4.3,3.9,9.3,6.9,14.7,8.9c5.8,2.1,11.9,3.1,18.1,3.1c6.7,0,13.4-1.5,19.5-4.3&#xA;&#x9;&#x9;&#x9;c6.1-2.7,11.5-6.9,15.6-12.2l-18-13.2c-2.1,2.9-4.7,5.4-7.6,7.3c-3.2,2-6.9,2.9-10.7,2.8c-4.6,0.1-9.1-1.4-12.7-4.4&#xA;&#x9;&#x9;&#x9;c-3.5-3-5.9-7.2-6.7-11.7h59.6v-8.1c0.1-6.1-0.8-12.2-2.7-18C553,173.6,550.4,168.9,546.9,164.8z M497.8,187.2&#xA;&#x9;&#x9;&#x9;c0.1-2,0.6-4.1,1.5-5.9c0.9-1.9,2.1-3.6,3.6-5c1.6-1.5,3.5-2.7,5.6-3.5c2.4-1,5-1.4,7.5-1.4c4.3-0.2,8.5,1.5,11.5,4.6&#xA;&#x9;&#x9;&#x9;c2.9,3,4.5,7,4.3,11.1H497.8z"></path>
&#x9;&#x9;<path class="st0" d="M641.1,164.1c-3.1-3.8-7.1-6.6-11.7-8.3c-4.9-1.9-11.1-2.8-18.6-2.8c-6.8,0-13.5,1.1-19.9,3.3&#xA;&#x9;&#x9;&#x9;c-6.2,2.1-12,5.6-16.8,10l13.7,14.1c2.6-3,5.8-5.5,9.3-7.3c3.6-1.8,7.6-2.7,11.6-2.6c4.2-0.1,8.3,1.3,11.6,4&#xA;&#x9;&#x9;&#x9;c3.2,2.7,5,6.7,4.9,10.9c-3.5,0-7.4,0.1-11.6,0.2c-4.2,0.1-8.4,0.5-12.5,1c-4.1,0.5-8.1,1.4-12.1,2.7c-3.7,1.1-7.2,2.8-10.4,5.1&#xA;&#x9;&#x9;&#x9;c-3,2.1-5.5,5-7.2,8.2c-1.9,3.8-2.8,8-2.7,12.2c-0.1,3.9,0.7,7.7,2.4,11.1c1.6,3.1,3.8,5.9,6.5,8.1c2.8,2.2,6.1,3.9,9.5,4.9&#xA;&#x9;&#x9;&#x9;c3.6,1.1,7.4,1.6,11.2,1.6c5.1,0,10.2-1,15-2.9c4.7-1.9,8.7-5.3,11.4-9.6h0.3v10.5H649V196c0.1-6.2-0.5-12.4-1.7-18.4&#xA;&#x9;&#x9;&#x9;C646.3,172.6,644.2,168,641.1,164.1z M625.3,207.3c0.1,2.4-0.5,4.7-1.6,6.9c-1.1,1.9-2.6,3.6-4.4,4.8c-1.9,1.3-4,2.3-6.3,2.9&#xA;&#x9;&#x9;&#x9;c-2.4,0.7-4.8,1-7.3,1c-2.9,0-5.7-0.8-8.2-2.2c-2.5-1.3-4.1-4-3.9-6.9c-0.1-2.5,0.9-5,2.8-6.7c2-1.7,4.3-2.9,6.9-3.6&#xA;&#x9;&#x9;&#x9;c2.7-0.8,5.6-1.3,8.4-1.5c2.9-0.2,5.3-0.3,7.3-0.3h6.3V207.3z"></path>
&#x9;&#x9;<path class="st0" d="M726.8,163.9h-0.3c-2.9-3.9-6.8-6.9-11.4-8.5c-4.8-1.7-9.9-2.5-15-2.5c-5.5-0.1-11,1.1-15.9,3.7&#xA;&#x9;&#x9;&#x9;c-4.6,2.4-8.7,5.8-11.9,9.9c-3.3,4.2-5.9,9-7.5,14.1c-1.8,5.4-2.7,11-2.7,16.7c-0.1,5.9,0.9,11.8,2.9,17.3&#xA;&#x9;&#x9;&#x9;c1.8,5.1,4.6,9.7,8.3,13.6c3.6,3.9,8,6.9,12.9,8.9c5.3,2.2,11,3.3,16.8,3.2c2.8,0,5.6-0.4,8.3-1.2c2.6-0.7,5-1.8,7.4-3.1&#xA;&#x9;&#x9;&#x9;c2.1-1.2,4.1-2.6,5.8-4.2c1.5-1.4,2.9-2.9,4-4.6h0.3v11h23.7V108.7h-25.7V163.9z M723.4,211.9c-3.6,3.9-8.7,5.8-15.2,5.8&#xA;&#x9;&#x9;&#x9;s-11.6-1.9-15.2-5.8c-3.6-3.9-5.4-9-5.4-15.3c0-6.3,1.8-11.4,5.4-15.3c3.6-3.9,8.7-5.8,15.2-5.8c6.5,0,11.6,1.9,15.2,5.8&#xA;&#x9;&#x9;&#x9;c3.6,3.9,5.4,9,5.4,15.3S727,208,723.4,211.9L723.4,211.9z"></path>
&#x9;&#x9;<rect x="771.5" y="155" class="st0" width="25.7" height="83.3"></rect>
&#x9;&#x9;<path class="st0" d="M890.2,164.3c-2.3-3.6-5.5-6.5-9.3-8.3c-4-2-9.3-3-15.8-3c-2.9,0-5.8,0.4-8.6,1.2c-2.5,0.7-4.8,1.8-7,3.1&#xA;&#x9;&#x9;&#x9;c-2,1.2-3.7,2.6-5.3,4.3c-1.4,1.4-2.5,3-3.4,4.8h-0.3V155h-24.6v83.3h25.7v-41.5c0-2.6,0.2-5.3,0.5-7.9c0.3-2.4,1-4.7,2.1-6.8&#xA;&#x9;&#x9;&#x9;c1.1-2,2.7-3.7,4.7-4.8c2.5-1.3,5.3-1.9,8-1.8c3.3,0,5.9,0.7,7.6,2.1c1.8,1.4,3.1,3.2,3.9,5.3c0.9,2.3,1.4,4.7,1.5,7.1&#xA;&#x9;&#x9;&#x9;c0.2,2.6,0.3,5.1,0.3,7.5v40.8H896v-46c0-5.2-0.4-10.4-1.2-15.5C894.1,172.4,892.5,168.1,890.2,164.3z"></path>
&#x9;&#x9;<path class="st0" d="M955.6,108.5c-7,0-12.6,0.9-16.9,2.7c-3.9,1.5-7.3,4-9.9,7.3c-2.3,3.2-3.9,6.8-4.6,10.7&#xA;&#x9;&#x9;&#x9;c-0.8,4.3-1.2,8.6-1.2,13V155h-17v20.6h17v62.7h25.7v-62.7h19V155h-19v-11.4c0-5.5,1-9.1,3.1-10.9c2.1-1.8,5.1-2.7,9.3-2.7&#xA;&#x9;&#x9;&#x9;c1.4,0,2.9,0.1,4.3,0.4c1.4,0.3,2.8,0.8,4.1,1.3l1.2-21.8c-2.4-0.6-4.9-1-7.4-1.2C960.8,108.6,958.2,108.5,955.6,108.5z"></path>
&#x9;&#x9;<path class="st0" d="M1063.4,178.6c-2.3-5.2-5.7-9.9-9.9-13.8c-4.3-3.9-9.3-6.9-14.7-8.8c-11.7-4.1-24.5-4.1-36.2,0&#xA;&#x9;&#x9;&#x9;c-5.5,1.9-10.5,4.9-14.7,8.8c-4.2,3.9-7.6,8.6-9.9,13.8c-2.5,5.7-3.7,11.8-3.7,18c-0.1,6.2,1.2,12.3,3.7,18&#xA;&#x9;&#x9;&#x9;c2.3,5.2,5.6,9.9,9.9,13.8c4.3,3.9,9.3,6.9,14.7,8.8c11.7,4.1,24.5,4.1,36.2,0c5.5-1.9,10.5-4.9,14.7-8.8&#xA;&#x9;&#x9;&#x9;c4.2-3.9,7.6-8.6,9.9-13.8c2.5-5.7,3.7-11.8,3.6-18C1067.1,190.4,1065.9,184.3,1063.4,178.6z M1035.9,211.9&#xA;&#x9;&#x9;&#x9;c-3.6,3.9-8.7,5.8-15.2,5.8c-6.5,0-11.6-1.9-15.2-5.8c-3.6-3.9-5.4-9-5.4-15.3s1.8-11.4,5.4-15.3c3.6-3.9,8.7-5.8,15.2-5.8&#xA;&#x9;&#x9;&#x9;c6.5,0,11.6,1.9,15.2,5.8c3.6,3.9,5.4,9,5.4,15.3S1039.5,208,1035.9,211.9z"></path>
&#x9;&#x9;<rect x="771.5" y="108.7" class="st0" width="25.7" height="25.7"></rect>
&#x9;</g>
&#x9;<g>
&#x9;&#x9;<path class="st0" d="M680.4,432.3c1.8-0.3,3.4-0.8,4.9-1.6c1.4-0.8,2.6-1.9,3.4-3.4c0.9-1.5,1.3-3.4,1.3-5.8s-0.4-4.3-1.3-5.8&#xA;&#x9;&#x9;&#x9;c-0.9-1.5-2-2.6-3.4-3.4c-1.4-0.8-3-1.3-4.9-1.6c-1.8-0.3-3.7-0.4-5.5-0.4h-12.5v22.7h12.5C676.7,432.8,678.5,432.6,680.4,432.3z"></path>
&#x9;&#x9;<path class="st0" d="M538.4,434.9c-1.1-1.2-2.5-2.2-4.2-2.9s-3.7-1-5.9-1c-2.2,0-4.2,0.4-6,1.2c-1.8,0.8-3.4,1.9-4.6,3.2&#xA;&#x9;&#x9;&#x9;c-1.3,1.3-2.2,2.8-2.9,4.4c-0.7,1.6-1,3.2-1,4.8h28.2c-0.1-2-0.4-3.8-0.9-5.5C540.4,437.6,539.5,436.1,538.4,434.9z"></path>
&#x9;&#x9;<path class="st0" d="M599.3,442c-0.7-2-1.8-3.7-3.1-5.2c-1.3-1.4-2.9-2.5-4.9-3.4c-1.9-0.8-4.1-1.2-6.5-1.2&#xA;&#x9;&#x9;&#x9;c-2.4,0-4.5,0.4-6.5,1.2c-1.9,0.8-3.5,2-4.9,3.4c-1.3,1.4-2.4,3.1-3.1,5.2c-0.7,2-1.1,4.2-1.1,6.6s0.4,4.6,1.1,6.6&#xA;&#x9;&#x9;&#x9;c0.7,2,1.8,3.7,3.1,5.2c1.3,1.4,2.9,2.6,4.9,3.4c1.9,0.8,4.1,1.2,6.5,1.2c2.4,0,4.5-0.4,6.5-1.2c1.9-0.8,3.5-2,4.9-3.4&#xA;&#x9;&#x9;&#x9;c1.3-1.4,2.4-3.1,3.1-5.2c0.7-2,1.1-4.2,1.1-6.6S600.1,444,599.3,442z"></path>
&#x9;&#x9;<path class="st0" d="M921.2,434.9c-1.1-1.2-2.5-2.2-4.2-2.9s-3.7-1-5.9-1c-2.2,0-4.2,0.4-6,1.2c-1.8,0.8-3.4,1.9-4.6,3.2&#xA;&#x9;&#x9;&#x9;c-1.3,1.3-2.2,2.8-2.9,4.4c-0.7,1.6-1,3.2-1,4.8h28.2c-0.1-2-0.4-3.8-0.9-5.5C923.2,437.6,922.4,436.1,921.2,434.9z"></path>
&#x9;&#x9;<path class="st0" d="M728.3,449.8c-2.2,0.2-4.2,0.7-6.1,1.3c-1.8,0.7-3.3,1.6-4.5,2.8c-1.2,1.2-1.7,2.7-1.7,4.6&#xA;&#x9;&#x9;&#x9;c0,2.7,0.9,4.7,2.7,5.9c1.8,1.2,4.3,1.8,7.4,1.8c2.5,0,4.5-0.4,6.3-1.2c1.7-0.8,3.1-1.9,4.2-3.2c1.1-1.3,1.8-2.8,2.3-4.4&#xA;&#x9;&#x9;&#x9;c0.5-1.6,0.7-3.2,0.7-4.8v-3h-4.8C732.7,449.5,730.6,449.6,728.3,449.8z"></path>
&#x9;&#x9;<path class="st0" d="M328.9,434.9c-1.1-1.2-2.5-2.2-4.2-2.9s-3.7-1-5.9-1c-2.2,0-4.2,0.4-6,1.2c-1.8,0.8-3.4,1.9-4.6,3.2&#xA;&#x9;&#x9;&#x9;c-1.3,1.3-2.2,2.8-2.9,4.4c-0.7,1.6-1,3.2-1,4.8h28.2c-0.1-2-0.4-3.8-0.9-5.5C330.8,437.6,330,436.1,328.9,434.9z"></path>
&#x9;&#x9;<path class="st0" d="M0,0v341v197h1200V341V0H0z M237.3,448.1c1.2,3.3,2.9,6.2,5.2,8.7c2.3,2.5,5,4.5,8.2,6&#xA;&#x9;&#x9;&#x9;c3.2,1.5,6.9,2.2,11,2.2c4,0,7.6-0.8,10.6-2.5c3-1.7,5.6-4,7.8-7l8,6.1c-0.5,0.7-1.5,1.8-2.8,3.1c-1.3,1.4-3.1,2.7-5.3,4.1&#xA;&#x9;&#x9;&#x9;c-2.2,1.4-4.8,2.6-7.9,3.6c-3.1,1-6.6,1.5-10.7,1.5c-5.6,0-10.6-1.1-15.1-3.2c-4.5-2.1-8.3-4.9-11.4-8.3&#xA;&#x9;&#x9;&#x9;c-3.1-3.4-5.5-7.3-7.2-11.7c-1.7-4.3-2.5-8.7-2.5-13.2c0-5.4,0.9-10.4,2.7-15.1c1.8-4.6,4.3-8.6,7.5-11.9&#xA;&#x9;&#x9;&#x9;c3.2-3.3,7.1-5.9,11.6-7.8c4.5-1.9,9.5-2.8,14.9-2.8c4.6,0,9.2,0.9,13.7,2.7c4.5,1.8,8.1,4.5,11,8.2l-7.9,6.1&#xA;&#x9;&#x9;&#x9;c-2-2.6-4.5-4.6-7.6-6c-3-1.4-6.2-2.1-9.4-2.1c-4,0-7.6,0.7-10.8,2.2c-3.2,1.5-6,3.5-8.2,6.1s-4.1,5.6-5.3,9.1&#xA;&#x9;&#x9;&#x9;c-1.3,3.5-1.9,7.2-1.9,11.2C235.5,441.2,236.1,444.7,237.3,448.1z M305.5,457.5c0.9,1.7,2.1,3.1,3.5,4.3c1.5,1.2,3.1,2.1,5.1,2.8&#xA;&#x9;&#x9;&#x9;c1.9,0.7,3.9,1,6,1c2.8,0,5.2-0.6,7.3-1.9c2.1-1.3,3.9-3,5.7-5.1l6.8,5.2c-5,6.4-11.9,9.6-20.9,9.6c-3.7,0-7.1-0.6-10.1-1.9&#xA;&#x9;&#x9;&#x9;c-3-1.3-5.6-3-7.7-5.2c-2.1-2.2-3.7-4.8-4.8-7.8c-1.1-3-1.7-6.3-1.7-9.8c0-3.5,0.6-6.8,1.8-9.8c1.2-3,2.9-5.6,5.1-7.8&#xA;&#x9;&#x9;&#x9;c2.2-2.2,4.7-4,7.7-5.2c3-1.3,6.2-1.9,9.7-1.9c4.2,0,7.7,0.7,10.6,2.2c2.9,1.5,5.2,3.4,7.1,5.7c1.9,2.4,3.2,5,4,7.9&#xA;&#x9;&#x9;&#x9;c0.8,2.9,1.2,5.9,1.2,9v3.2h-37.8C304.1,453.9,304.6,455.8,305.5,457.5z M361.8,432.3c0.6-1.3,1.4-2.4,2.4-3.4&#xA;&#x9;&#x9;&#x9;c1-1,2.1-1.9,3.3-2.6c1.2-0.7,2.6-1.3,4-1.7c1.5-0.4,2.9-0.6,4.4-0.6c1.5,0,2.8,0.2,4,0.6l-0.4,9.6c-0.7-0.2-1.5-0.4-2.2-0.5&#xA;&#x9;&#x9;&#x9;c-0.7-0.1-1.5-0.2-2.2-0.2c-4.4,0-7.7,1.2-10,3.7c-2.3,2.5-3.5,6.3-3.5,11.4v23.6h-8.9V425h8.9v7.3H361.8z M414.6,425v7.8h-12.8&#xA;&#x9;&#x9;&#x9;v21.4c0,1.3,0,2.6,0.1,3.9c0.1,1.3,0.3,2.5,0.7,3.5c0.4,1,1.1,1.9,2,2.5c0.9,0.6,2.2,0.9,3.9,0.9c1.1,0,2.2-0.1,3.3-0.3&#xA;&#x9;&#x9;&#x9;c1.1-0.2,2.2-0.6,3.1-1.1v8.1c-1.1,0.6-2.4,1-4.1,1.2c-1.7,0.2-3,0.3-3.9,0.3c-3.4,0-6.1-0.5-8-1.4c-1.9-1-3.3-2.2-4.2-3.7&#xA;&#x9;&#x9;&#x9;c-0.9-1.5-1.4-3.2-1.6-5.1c-0.2-1.9-0.2-3.8-0.2-5.7v-24.5h-10.3V425h10.3v-13.2h8.9V425H414.6z M431.3,414.7&#xA;&#x9;&#x9;&#x9;c-1.8,0-3.3-0.6-4.6-1.9c-1.3-1.3-1.9-2.8-1.9-4.6c0-1.8,0.6-3.3,1.9-4.6c1.3-1.3,2.8-1.9,4.6-1.9c1.8,0,3.3,0.6,4.6,1.9&#xA;&#x9;&#x9;&#x9;c1.3,1.3,1.9,2.8,1.9,4.6c0,1.8-0.6,3.3-1.9,4.6C434.6,414,433.1,414.7,431.3,414.7z M435.8,425v47.1h-8.9V425H435.8z M473.1,425&#xA;&#x9;&#x9;&#x9;v7.8h-10.7v39.3h-8.9v-39.3h-10.1V425h10.1v-10.5c0-6.3,1.2-11,3.6-14.1c2.4-3.1,6.6-4.6,12.5-4.6c1,0,2,0,3.1,0.1&#xA;&#x9;&#x9;&#x9;c1.1,0.1,2.3,0.3,3.5,0.6l-1,7.9c-0.9-0.3-1.7-0.6-2.5-0.7c-0.8-0.1-1.7-0.2-2.6-0.2c-1.7,0-3,0.2-4,0.7c-1,0.5-1.8,1.2-2.3,2.1&#xA;&#x9;&#x9;&#x9;c-0.6,0.9-0.9,2-1.1,3.3c-0.2,1.3-0.2,2.8-0.2,4.4V425H473.1z M488.2,414.7c-1.8,0-3.3-0.6-4.6-1.9c-1.3-1.3-1.9-2.8-1.9-4.6&#xA;&#x9;&#x9;&#x9;c0-1.8,0.6-3.3,1.9-4.6c1.3-1.3,2.8-1.9,4.6-1.9c1.8,0,3.3,0.6,4.6,1.9c1.3,1.3,1.9,2.8,1.9,4.6c0,1.8-0.6,3.3-1.9,4.6&#xA;&#x9;&#x9;&#x9;C491.6,414,490,414.7,488.2,414.7z M492.7,425v47.1h-8.9V425H492.7z M515,457.5c0.9,1.7,2.1,3.1,3.5,4.3c1.5,1.2,3.1,2.1,5.1,2.8&#xA;&#x9;&#x9;&#x9;c1.9,0.7,3.9,1,6,1c2.8,0,5.2-0.6,7.3-1.9c2.1-1.3,3.9-3,5.7-5.1l6.8,5.2c-5,6.4-11.9,9.6-20.9,9.6c-3.7,0-7.1-0.6-10.1-1.9&#xA;&#x9;&#x9;&#x9;c-3-1.3-5.6-3-7.7-5.2c-2.1-2.2-3.7-4.8-4.8-7.8c-1.1-3-1.7-6.3-1.7-9.8c0-3.5,0.6-6.8,1.8-9.8c1.2-3,2.9-5.6,5.1-7.8&#xA;&#x9;&#x9;&#x9;c2.2-2.2,4.7-4,7.7-5.2c3-1.3,6.2-1.9,9.7-1.9c4.2,0,7.7,0.7,10.6,2.2c2.9,1.5,5.2,3.4,7.1,5.7c1.9,2.4,3.2,5,4,7.9&#xA;&#x9;&#x9;&#x9;c0.8,2.9,1.2,5.9,1.2,9v3.2h-37.8C513.7,453.9,514.1,455.8,515,457.5z M600.2,465.3c-1.7,2.5-4.1,4.5-7.1,5.9&#xA;&#x9;&#x9;&#x9;c-3,1.4-6.1,2.1-9.3,2.1c-3.6,0-6.9-0.6-9.9-1.9c-2.9-1.3-5.5-3-7.6-5.3c-2.1-2.3-3.7-4.9-4.8-7.8c-1.1-3-1.7-6.2-1.7-9.7&#xA;&#x9;&#x9;&#x9;c0-3.5,0.6-6.8,1.7-9.8c1.1-3,2.7-5.6,4.8-7.8c2.1-2.2,4.6-4,7.6-5.2c2.9-1.3,6.2-1.9,9.9-1.9c3.4,0,6.6,0.7,9.5,2.1&#xA;&#x9;&#x9;&#x9;c3,1.4,5.3,3.4,6.9,5.8h0.2V397h8.9v75.1h-8.9v-6.8H600.2z M652.8,472.1v-70.3h24.7c4.5,0,8.2,0.6,11.1,1.8&#xA;&#x9;&#x9;&#x9;c2.9,1.2,5.2,2.8,6.9,4.7s2.9,4,3.5,6.4c0.7,2.4,1,4.6,1,6.8s-0.3,4.5-1,6.8c-0.7,2.4-1.8,4.5-3.5,6.4s-4,3.4-6.9,4.7&#xA;&#x9;&#x9;&#x9;c-2.9,1.2-6.6,1.8-11.1,1.8h-15.2v31H652.8z M738.9,437.3c-0.5-1.2-1.2-2.3-2.1-3.2c-0.9-1-2.1-1.7-3.5-2.3c-1.4-0.6-3-0.8-5-0.8&#xA;&#x9;&#x9;&#x9;c-1.7,0-3.2,0.2-4.5,0.5c-1.3,0.3-2.5,0.7-3.5,1.2c-1.1,0.5-2,1.1-2.9,1.7c-0.9,0.7-1.7,1.3-2.5,1.9l-5.4-5.6&#xA;&#x9;&#x9;&#x9;c2.5-2.3,5.4-4.1,8.7-5.2c3.3-1.2,6.6-1.7,9.9-1.7c3.4,0,6.4,0.4,8.9,1.3c2.5,0.9,4.5,2,6.1,3.5s2.8,3.1,3.5,5&#xA;&#x9;&#x9;&#x9;c0.8,1.9,1.1,3.9,1.1,5.9v24c0,1.7,0,3.2,0.1,4.6c0.1,1.4,0.2,2.7,0.3,4h-7.9c-0.2-2.4-0.3-4.8-0.3-7.2h-0.2c-2,3-4.3,5.2-7.1,6.5&#xA;&#x9;&#x9;&#x9;c-2.7,1.3-5.9,1.9-9.4,1.9c-2.2,0-4.3-0.3-6.3-0.9c-2-0.6-3.7-1.5-5.2-2.7s-2.7-2.7-3.5-4.4c-0.9-1.8-1.3-3.8-1.3-6.1&#xA;&#x9;&#x9;&#x9;c0-3,0.7-5.6,2-7.7c1.4-2.1,3.2-3.7,5.6-5c2.4-1.3,5.1-2.2,8.2-2.8c3.1-0.6,6.5-0.8,10.1-0.8h6.6v-2&#xA;&#x9;&#x9;&#x9;C739.6,439.7,739.4,438.5,738.9,437.3z M770.1,432.3c0.6-1.3,1.4-2.4,2.4-3.4c1-1,2.1-1.9,3.3-2.6c1.2-0.7,2.6-1.3,4-1.7&#xA;&#x9;&#x9;&#x9;c1.5-0.4,2.9-0.6,4.4-0.6s2.8,0.2,4,0.6l-0.4,9.6c-0.7-0.2-1.5-0.4-2.2-0.5c-0.7-0.1-1.5-0.2-2.2-0.2c-4.4,0-7.7,1.2-10,3.7&#xA;&#x9;&#x9;&#x9;c-2.3,2.5-3.5,6.3-3.5,11.4v23.6H761V425h8.9v7.3H770.1z M823,425v7.8h-12.8v21.4c0,1.3,0,2.6,0.1,3.9c0.1,1.3,0.3,2.5,0.7,3.5&#xA;&#x9;&#x9;&#x9;c0.4,1,1.1,1.9,2,2.5c0.9,0.6,2.2,0.9,3.9,0.9c1.1,0,2.2-0.1,3.3-0.3c1.1-0.2,2.2-0.6,3.1-1.1v8.1c-1.1,0.6-2.4,1-4.1,1.2&#xA;&#x9;&#x9;&#x9;c-1.7,0.2-3,0.3-3.9,0.3c-3.4,0-6.1-0.5-8-1.4c-1.9-1-3.3-2.2-4.2-3.7c-0.9-1.5-1.4-3.2-1.6-5.1c-0.2-1.9-0.2-3.8-0.2-5.7v-24.5&#xA;&#x9;&#x9;&#x9;h-10.3V425h10.3v-13.2h8.9V425H823z M843.6,432.3c1.1-2.5,3.1-4.6,5.9-6.1c2.8-1.6,6-2.3,9.6-2.3c2.3,0,4.4,0.3,6.5,1&#xA;&#x9;&#x9;&#x9;s3.9,1.8,5.5,3.2c1.6,1.5,2.8,3.3,3.7,5.6c0.9,2.3,1.4,5,1.4,8.1v30.3h-8.9v-27.8c0-2.2-0.3-4.1-0.9-5.6c-0.6-1.6-1.4-2.8-2.4-3.8&#xA;&#x9;&#x9;&#x9;c-1-1-2.1-1.7-3.4-2.1c-1.3-0.4-2.6-0.6-4-0.6c-1.9,0-3.6,0.3-5.2,0.9s-3,1.5-4.2,2.8c-1.2,1.3-2.1,2.9-2.8,4.9&#xA;&#x9;&#x9;&#x9;c-0.7,2-1,4.3-1,7.1v24.2h-8.9V425h8.9v7.3H843.6z M897.8,457.5c0.9,1.7,2.1,3.1,3.5,4.3s3.1,2.1,5.1,2.8c1.9,0.7,3.9,1,6,1&#xA;&#x9;&#x9;&#x9;c2.8,0,5.2-0.6,7.3-1.9c2.1-1.3,3.9-3,5.7-5.1l6.8,5.2c-5,6.4-11.9,9.6-20.9,9.6c-3.7,0-7.1-0.6-10.1-1.9c-3-1.3-5.6-3-7.7-5.2&#xA;&#x9;&#x9;&#x9;c-2.1-2.2-3.7-4.8-4.8-7.8c-1.1-3-1.7-6.3-1.7-9.8c0-3.5,0.6-6.8,1.8-9.8c1.2-3,2.9-5.6,5.1-7.8c2.2-2.2,4.7-4,7.7-5.2&#xA;&#x9;&#x9;&#x9;c3-1.3,6.2-1.9,9.7-1.9c4.2,0,7.7,0.7,10.6,2.2c2.9,1.5,5.2,3.4,7.1,5.7c1.9,2.4,3.2,5,4,7.9c0.8,2.9,1.2,5.9,1.2,9v3.2h-37.8&#xA;&#x9;&#x9;&#x9;C896.5,453.9,897,455.8,897.8,457.5z M954.1,432.3c0.6-1.3,1.4-2.4,2.4-3.4c1-1,2.1-1.9,3.3-2.6c1.2-0.7,2.6-1.3,4-1.7&#xA;&#x9;&#x9;&#x9;c1.5-0.4,2.9-0.6,4.4-0.6s2.8,0.2,4,0.6l-0.4,9.6c-0.7-0.2-1.5-0.4-2.2-0.5c-0.7-0.1-1.5-0.2-2.2-0.2c-4.4,0-7.7,1.2-10,3.7&#xA;&#x9;&#x9;&#x9;c-2.3,2.5-3.5,6.3-3.5,11.4v23.6H945V425h8.9v7.3H954.1z M4,341V4h1192v337H4z"></path>
&#x9;</g>
</g>
</svg>