<svg width="69" height="30" viewBox="0 0 69 30" fill="none" xmlns="http://www.w3.org/2000/svg">
<path d="M16.2306 21.1652V26.0463H14.6497V14.002H18.8492C19.9193 14.002 20.8192 14.3506 21.5651 15.0479C22.319 15.7452 22.7001 16.5931 22.7001 17.5915C22.7001 18.5899 22.319 19.4615 21.5651 20.1509C20.8273 20.8324 19.9274 21.181 18.8492 21.181H16.2306V21.1652ZM16.2306 15.4758V19.6834H18.8816C19.514 19.6834 20.0328 19.4774 20.4463 19.0574C20.8678 18.6454 21.0867 18.1462 21.0867 17.5756C21.0867 17.0051 20.876 16.5297 20.4463 16.1097C20.0328 15.6818 19.514 15.4679 18.8816 15.4679H16.2306V15.4758Z" fill="white"></path>
<path d="M26.9319 17.5362C28.0994 17.5362 29.0236 17.8453 29.7046 18.4554C30.3775 19.0656 30.718 19.9055 30.718 20.9673V26.0465H29.2019V24.9055H29.1371C28.4804 25.8484 27.6129 26.316 26.5185 26.316C25.5861 26.316 24.8078 26.0465 24.1836 25.5077C23.5593 24.9689 23.2432 24.2954 23.2432 23.4871C23.2432 22.6313 23.5756 21.9578 24.2322 21.4507C24.8889 20.9435 25.7726 20.69 26.8752 20.69C27.8156 20.69 28.5939 20.8564 29.2019 21.1971V20.8405C29.2019 20.3017 28.983 19.8421 28.5452 19.4697C28.1075 19.0973 27.5967 18.9071 27.013 18.9071C26.1293 18.9071 25.4321 19.2716 24.9132 20.0006L23.5188 19.1448C24.289 18.0671 25.424 17.5283 26.9238 17.5283L26.9319 17.5362ZM24.8808 23.5267C24.8808 23.9309 25.0592 24.2637 25.4078 24.5331C25.7564 24.8025 26.1698 24.9372 26.6401 24.9372C27.3048 24.9372 27.8967 24.6995 28.4236 24.2161C28.9425 23.7328 29.21 23.1702 29.21 22.5204C28.7155 22.14 28.0264 21.9499 27.1427 21.9499C26.5022 21.9499 25.9672 22.1004 25.5294 22.4015C25.0997 22.7026 24.8808 23.083 24.8808 23.5267V23.5267Z" fill="white"></path>
<path d="M32.5098 17.8051H34.0258V19.1521H34.0907C34.5609 18.0983 35.5337 17.5674 37.0011 17.5674L37.3254 17.5991V19.2155L36.6201 19.1521C35.8823 19.1521 35.2824 19.374 34.8041 19.8178C34.3258 20.2615 34.0907 20.8241 34.0907 21.5056V26.046H32.5098V17.8051V17.8051ZM42.3924 26.1807C41.7033 26.1807 41.1358 25.9746 40.6818 25.5547C40.2278 25.1426 39.9927 24.5642 39.9846 23.8193V19.2076H38.501V17.7972H39.9846V15.2773H41.5655V17.7972H43.6328V19.2076H41.5655V23.3122C41.5655 23.859 41.6709 24.2314 41.8897 24.4295C42.1086 24.6276 42.3519 24.7227 42.6275 24.7227C42.7572 24.7227 42.8788 24.7068 43.0004 24.683C43.122 24.6514 43.2355 24.6197 43.3328 24.5721L43.8355 25.9509C43.422 26.0935 42.9437 26.1727 42.3924 26.1727V26.1807Z" fill="white"></path>
<path d="M45.2297 17.8055H46.7458V18.9466H46.8106C47.0538 18.5425 47.4187 18.2097 47.9213 17.9403C48.424 17.6708 48.9428 17.5361 49.4779 17.5361C50.5075 17.5361 51.302 17.8214 51.8614 18.3998C52.4208 18.9783 52.6964 19.8024 52.6964 20.8642V26.0464H51.1155V20.9672C51.0831 19.6201 50.3859 18.9466 49.032 18.9466C48.3996 18.9466 47.8727 19.2002 47.4511 19.6914C47.0295 20.1907 46.8106 20.7849 46.8106 21.4823V26.0385H45.2297V17.7976V17.8055Z" fill="white"></path>
<path d="M58.3472 26.3158C57.1068 26.3158 56.0853 25.9038 55.2827 25.0718C54.4801 24.2398 54.0747 23.1938 54.0747 21.926C54.0747 20.6582 54.4639 19.6281 55.2421 18.7881C56.0204 17.9561 57.0176 17.5361 58.2337 17.5361C59.4498 17.5361 60.4794 17.9323 61.2171 18.7247C61.9549 19.5171 62.3278 20.6265 62.3278 22.0448L62.3116 22.2113H55.688C55.7124 23.0195 55.988 23.6693 56.515 24.1605C57.0419 24.6518 57.6743 24.8975 58.412 24.8975C59.4254 24.8975 60.2118 24.4062 60.7874 23.4157L62.1981 24.0892C61.817 24.7865 61.2982 25.3254 60.6253 25.7216C59.9524 26.1177 59.1903 26.3079 58.3472 26.3079V26.3158ZM55.8177 20.9355H60.6577C60.6091 20.365 60.374 19.8895 59.9443 19.5171C59.5146 19.1447 58.939 18.9545 58.2175 18.9545C57.6175 18.9545 57.1068 19.1368 56.6771 19.4933C56.2474 19.8499 55.9637 20.3333 55.8259 20.9434L55.8177 20.9355Z" fill="white"></path>
<path d="M65.368 26.0459H63.7871V17.805H65.3031V19.1521H65.368C65.5301 18.7162 65.8625 18.3438 66.3571 18.0348C66.8597 17.7257 67.3461 17.5752 67.8326 17.5752C68.319 17.5752 68.6838 17.6386 69 17.7733L68.5217 19.2709C68.3271 19.1917 68.019 19.1521 67.5894 19.1521C66.9894 19.1521 66.4706 19.3898 66.0328 19.8573C65.5869 20.3248 65.368 20.8795 65.368 21.5055V26.0459V26.0459Z" fill="white"></path>
<path d="M18.2329 6.95745V8.01134H20.8028C20.7218 8.67695 20.438 9.192 19.9597 9.5565C19.4895 9.92101 18.9139 10.1033 18.2329 10.1033C17.4384 10.1033 16.7736 9.83384 16.2304 9.28709C15.6872 8.74826 15.4116 8.09058 15.4116 7.30611C15.4116 6.52164 15.6872 5.86395 16.2304 5.32513C16.7736 4.77837 17.4465 4.50896 18.2329 4.50896C18.9787 4.50896 19.6192 4.76253 20.1705 5.26173L20.9325 4.51688C20.1705 3.81165 19.2706 3.45508 18.2329 3.45508C17.5275 3.45508 16.8628 3.6294 16.2385 3.97806C15.6143 4.31879 15.1278 4.79422 14.7711 5.39644C14.4225 5.98281 14.2441 6.61673 14.2441 7.29818C14.2441 7.97964 14.4225 8.62148 14.7711 9.21578C15.1197 9.81007 15.6143 10.2776 16.2385 10.6262C16.8628 10.9749 17.5275 11.1492 18.2329 11.1492C19.2949 11.1492 20.1786 10.8243 20.8758 10.1746C21.5649 9.53273 21.9135 8.67695 21.9135 7.61514C21.9135 7.36158 21.8973 7.14763 21.8568 6.95745H18.241H18.2329Z" fill="white"></path>
<path d="M24.8323 6.19629C24.1107 6.19629 23.5027 6.43401 23.0163 6.90944C22.5298 7.37695 22.2866 7.96333 22.2866 8.67648C22.2866 9.38963 22.5298 9.96016 23.0244 10.4435C23.5108 10.919 24.1107 11.1567 24.8323 11.1567C25.5538 11.1567 26.1537 10.919 26.6402 10.4435C27.1347 9.96016 27.3779 9.37378 27.3779 8.67648C27.3779 7.97917 27.1347 7.38488 26.6402 6.90944C26.1537 6.43401 25.5538 6.19629 24.8323 6.19629ZM25.8376 9.74621C25.5619 10.0315 25.2295 10.1741 24.8323 10.1741C24.435 10.1741 24.0864 10.0315 23.8108 9.74621C23.5351 9.46095 23.3973 9.10437 23.3973 8.67648C23.3973 8.24859 23.5351 7.88409 23.8108 7.60675C24.0864 7.32149 24.4269 7.17886 24.8323 7.17886C25.2376 7.17886 25.5781 7.32149 25.8538 7.60675C26.1294 7.88409 26.2672 8.24066 26.2672 8.67648C26.2672 9.1123 26.1294 9.45302 25.8457 9.74621H25.8376Z" fill="white"></path>
<path d="M40.1224 3.72461H39.0117V11.0067H40.1224V3.72461Z" fill="white"></path>
<path d="M30.3855 6.19629C29.664 6.19629 29.0559 6.43401 28.5695 6.90944C28.0831 7.37695 27.8398 7.96333 27.8398 8.67648C27.8398 9.38963 28.0831 9.96016 28.5776 10.4435C29.064 10.919 29.664 11.1567 30.3855 11.1567C31.107 11.1567 31.707 10.919 32.1934 10.4435C32.6879 9.96016 32.9311 9.37378 32.9311 8.67648C32.9311 7.97917 32.6879 7.38488 32.1934 6.90944C31.707 6.43401 31.107 6.19629 30.3855 6.19629V6.19629ZM31.3908 9.74621C31.1151 10.0315 30.7827 10.1741 30.3855 10.1741C29.9882 10.1741 29.6396 10.0315 29.364 9.74621C29.0883 9.46095 28.9505 9.10437 28.9505 8.67648C28.9505 8.24859 29.0883 7.88409 29.364 7.60675C29.6396 7.32149 29.9801 7.17886 30.3855 7.17886C30.7908 7.17886 31.1313 7.32149 31.407 7.60675C31.6826 7.88409 31.8205 8.24066 31.8205 8.67648C31.8205 9.1123 31.6826 9.45302 31.3989 9.74621H31.3908Z" fill="white"></path>
<path d="M43.1785 10.1742C42.6192 10.1742 42.2138 9.92065 41.9463 9.42144L45.3351 8.0506L45.2216 7.76534C45.1324 7.53554 45.0189 7.3216 44.8729 7.1235C44.727 6.93333 44.5649 6.759 44.3784 6.62429C44.1919 6.48166 43.9893 6.37865 43.7623 6.29941C43.5353 6.2281 43.3002 6.18848 43.0488 6.18848C42.3678 6.18848 41.8003 6.42619 41.3382 6.89371C40.8842 7.36914 40.6572 7.96344 40.6572 8.66867C40.6572 9.3739 40.9004 9.96027 41.3788 10.4357C41.8571 10.9111 42.457 11.1489 43.1704 11.1489C44.0703 11.1489 44.7676 10.7844 45.2783 10.0474L44.4108 9.48483C44.0947 9.94442 43.6812 10.1663 43.1623 10.1663L43.1785 10.1742ZM42.1489 7.56724C42.4327 7.2899 42.7408 7.1552 43.0894 7.1552C43.3083 7.1552 43.5028 7.20274 43.6731 7.29783C43.8433 7.39291 43.9649 7.5197 44.0298 7.67818L41.7679 8.59735C41.7517 8.17738 41.8814 7.83665 42.1489 7.56724V7.56724Z" fill="white"></path>
<path d="M37.1876 6.75096H37.147C36.8308 6.37854 36.385 6.19629 35.8093 6.19629C35.1527 6.19629 34.5852 6.44193 34.0987 6.92529C33.6204 7.41657 33.3772 7.99502 33.3772 8.67648C33.3772 9.35794 33.6204 9.93638 34.0987 10.4197C34.5933 10.9031 35.1608 11.1408 35.8093 11.1408C36.3768 11.1408 36.8227 10.9506 37.147 10.5782H37.1876V10.8318C37.1876 11.8698 36.7336 12.3928 35.8337 12.3928C35.5418 12.3928 35.2905 12.3136 35.0635 12.1472C34.8365 11.9808 34.6662 11.7747 34.5527 11.5053L33.5799 11.9015C33.6772 12.1234 33.7988 12.3215 33.9447 12.4958C34.0906 12.6781 34.2609 12.8286 34.4555 12.9554C34.65 13.0822 34.8608 13.1852 35.0959 13.2565C35.3229 13.3278 35.5661 13.3674 35.8256 13.3674C36.5795 13.3674 37.1713 13.1456 37.5929 12.6939C38.0145 12.2502 38.2334 11.6083 38.2334 10.7842V6.33892H37.1795V6.74304L37.1876 6.75096ZM36.8714 9.75413C36.612 10.0394 36.2877 10.1741 35.9147 10.1741C35.5175 10.1741 35.1851 10.0315 34.9095 9.74621C34.6419 9.46095 34.5041 9.10437 34.5041 8.6844C34.5041 8.26443 34.6419 7.89993 34.9176 7.61467C35.2013 7.32149 35.5337 7.17093 35.9147 7.17093C36.2958 7.17093 36.6201 7.31356 36.8714 7.59882C37.1308 7.89201 37.2686 8.25651 37.2686 8.67648C37.2686 9.09645 37.1389 9.45302 36.8714 9.74621V9.75413Z" fill="white"></path>
<path d="M8.07473 0H0V30H8.07473V0Z" fill="white"></path>
</svg>