<?xml version="1.0"?>

<svg version="1.1" id="Laag_1" xmlns="http://www.w3.org/2000/svg" xmlns:xlink="http://www.w3.org/1999/xlink" x="0px" y="0px" viewBox="0 0 1127 383.8" style="enable-background:new 0 0 1127 383.8;" xml:space="preserve">

<g>
&#x9;<path class="st0" d="M0,381.9v-100h42.6c11,0,19.3,2.3,25,6.9s8.5,10.9,8.5,18.9c0,4.9-1.2,9.3-3.5,13.1c-2.3,3.8-6.5,6.6-12.4,8.5&#xA;&#x9;&#x9;c7.5,1.8,12.9,4.8,16.3,9.2c3.4,4.4,5.1,9.7,5.1,15.9c0,8.6-3,15.3-9,20.2c-6,4.8-14.7,7.2-26,7.2L0,381.9L0,381.9z M41.7,295.8H15&#xA;&#x9;&#x9;v29.3h27.4c6.4,0,11.1-1.2,14.1-3.6s4.5-6.1,4.5-11.1s-1.6-8.7-4.7-11C53.1,296.9,48.3,295.8,41.7,295.8z M46.1,338.7H15V368h31.4&#xA;&#x9;&#x9;c13.2,0,19.9-4.9,19.9-14.6c0-5-1.5-8.6-4.5-11C58.8,340,53.6,338.7,46.1,338.7z"></path>
&#x9;<path class="st0" d="M122.6,383.6c-8.2,0-14.5-2.8-18.9-8.4c-4.3-5.6-6.5-13.4-6.5-23.5v-41.3h14.3V350c0,13.5,4.9,20.3,14.7,20.3&#xA;&#x9;&#x9;h1.4c4.9,0,9-1.5,12.4-4.5c3.4-3,5.9-6.8,7.6-11.4v-44h14.3v71.4h-14.3v-11.9c-2.6,4.2-5.9,7.6-9.8,10s-8.5,3.6-13.7,3.6&#xA;&#x9;&#x9;L122.6,383.6L122.6,383.6z"></path>
&#x9;<path class="st0" d="M208.7,383.6c-7.2,0-13.4-1.2-18.6-3.5s-9.5-5.8-13-10.4l9.7-8.9c5.1,6.9,12.4,10.4,21.7,10.4h1.4&#xA;&#x9;&#x9;c4.7,0,8.4-0.7,11-2.2s3.9-3.6,3.9-6.3c0-2.3-0.8-4.2-2.5-5.6c-1.7-1.5-4.8-2.7-9.2-3.6l-12.2-2.6c-14.2-3-21.3-9.6-21.3-19.9&#xA;&#x9;&#x9;c0-6.7,2.6-12,7.8-16.1c5.2-4.1,12.1-6.1,20.6-6.1h1.6c12.2,0,21.5,4.5,28.1,13.6l-9.7,8.1c-2.5-3.3-5.2-5.6-8.3-7&#xA;&#x9;&#x9;c-3.1-1.4-6.5-2.1-10.2-2.1h-1.4c-4.2,0-7.7,0.7-10.3,2.2c-2.6,1.5-4,3.6-4,6.3c0,2,0.8,3.7,2.5,4.9c1.6,1.2,4.4,2.2,8.3,3.1&#xA;&#x9;&#x9;l14.3,3.1c6.1,1.3,11,3.7,14.7,7.1s5.5,8,5.5,13.8c0,6.3-2.4,11.6-7.3,15.7s-12,6.2-21.4,6.2h-1.7V383.6z"></path>
&#x9;<path class="st0" d="M262.1,297.8c-2.9,0-5.2-0.9-6.9-2.7c-1.7-1.8-2.5-4.1-2.5-6.8c0-2.8,0.8-5.1,2.5-6.9s4-2.6,6.9-2.6&#xA;&#x9;&#x9;c3,0,5.3,0.9,6.9,2.6c1.7,1.8,2.5,4,2.5,6.9c0,2.8-0.8,5-2.5,6.8C267.3,296.9,265,297.8,262.1,297.8z M254.9,381.9v-71.4h14.3v71.4&#xA;&#x9;&#x9;H254.9z"></path>
&#x9;<path class="st0" d="M290.2,381.9v-71.4h14.3v11.9c2.6-4.2,5.9-7.6,9.8-10s8.5-3.6,13.7-3.6h1.6c7.9,0,14.1,2.8,18.6,8.4&#xA;&#x9;&#x9;s6.7,13.4,6.7,23.5V382h-14.3v-39.7c0-13.5-4.9-20.3-14.7-20.3h-1.4c-4.9,0-9,1.5-12.4,4.5s-5.9,6.8-7.6,11.4v44H290.2z"></path>
&#x9;<path class="st0" d="M405.2,383.6c-6.9,0-12.9-1.6-18-4.7c-5.2-3.1-9.2-7.5-12.1-13.1s-4.3-12.1-4.3-19.5s1.4-13.9,4.3-19.5&#xA;&#x9;&#x9;s6.9-10,12.1-13.2s11.2-4.7,18-4.7h1.6c6.2,0,11.7,1.5,16.5,4.6c4.7,3.1,8.4,7.5,11.1,13.3c2.7,5.8,4,12.7,4,20.9v4.4h-52.9&#xA;&#x9;&#x9;c0.9,5.9,3.1,10.5,6.6,13.8c3.5,3.4,8.2,5,13.9,5h1.4c3.4,0,6.7-0.7,9.9-2.1c3.1-1.4,5.8-3.3,7.9-5.7l8.8,9.3&#xA;&#x9;&#x9;c-3.2,3.5-7.2,6.2-12,8.3c-4.7,2-9.8,3.1-15.3,3.1h-1.5V383.6z M404.8,321.6c-5.1,0-9.3,1.7-12.7,5c-3.4,3.4-5.6,7.9-6.5,13.7H424&#xA;&#x9;&#x9;c-0.4-5.3-2.2-9.7-5.2-13.4c-3-3.6-7.2-5.4-12.6-5.4L404.8,321.6L404.8,321.6z"></path>
&#x9;<path class="st0" d="M480.8,383.6c-7.2,0-13.4-1.2-18.6-3.5c-5.2-2.3-9.5-5.8-13-10.4l9.7-8.9c5.1,6.9,12.4,10.4,21.7,10.4h1.4&#xA;&#x9;&#x9;c4.7,0,8.4-0.7,11-2.2s3.9-3.6,3.9-6.3c0-2.3-0.8-4.2-2.5-5.6c-1.7-1.5-4.8-2.7-9.2-3.6l-12.2-2.6c-14.2-3-21.3-9.6-21.3-19.9&#xA;&#x9;&#x9;c0-6.7,2.6-12,7.8-16.1s12.1-6.1,20.6-6.1h1.6c12.2,0,21.5,4.5,28.1,13.6l-9.7,8.1c-2.5-3.3-5.2-5.6-8.3-7s-6.5-2.1-10.2-2.1h-1.4&#xA;&#x9;&#x9;c-4.2,0-7.7,0.7-10.3,2.2s-4,3.6-4,6.3c0,2,0.8,3.7,2.5,4.9c1.6,1.2,4.4,2.2,8.3,3.1L491,341c6.1,1.3,11,3.7,14.7,7.1&#xA;&#x9;&#x9;s5.5,8,5.5,13.8c0,6.3-2.4,11.6-7.3,15.7c-4.9,4.1-12,6.2-21.4,6.2h-1.7V383.6z"></path>
&#x9;<path class="st0" d="M552.8,383.6c-7.2,0-13.4-1.2-18.6-3.5c-5.2-2.3-9.5-5.8-13-10.4l9.7-8.9c5.1,6.9,12.4,10.4,21.7,10.4h1.4&#xA;&#x9;&#x9;c4.7,0,8.4-0.7,11-2.2s3.9-3.6,3.9-6.3c0-2.3-0.8-4.2-2.5-5.6c-1.7-1.5-4.8-2.7-9.2-3.6l-12.2-2.6c-14.2-3-21.3-9.6-21.3-19.9&#xA;&#x9;&#x9;c0-6.7,2.6-12,7.8-16.1s12.1-6.1,20.6-6.1h1.6c12.2,0,21.5,4.5,28.1,13.6l-9.7,8.1c-2.5-3.3-5.2-5.6-8.3-7s-6.5-2.1-10.2-2.1h-1.4&#xA;&#x9;&#x9;c-4.2,0-7.7,0.7-10.3,2.2s-4,3.6-4,6.3c0,2,0.8,3.7,2.5,4.9c1.6,1.2,4.4,2.2,8.3,3.1L563,341c6.1,1.3,11,3.7,14.7,7.1&#xA;&#x9;&#x9;s5.5,8,5.5,13.8c0,6.3-2.4,11.6-7.3,15.7c-4.9,4.1-12,6.2-21.4,6.2h-1.7V383.6z"></path>
&#x9;<path class="st0" d="M633.8,381.9v-100h41.8c12.5,0,21.9,3,28.1,9c6.2,6,9.3,14.1,9.3,24.3c0,10.2-3.1,18.3-9.3,24.3&#xA;&#x9;&#x9;s-15.5,9-28.1,9h-26.9v33.4L633.8,381.9L633.8,381.9z M674.2,295.9h-25.4v38.6h25.4c8.1,0,14.1-1.6,17.8-4.8&#xA;&#x9;&#x9;c3.7-3.2,5.6-8,5.6-14.5c0-6.4-1.9-11.2-5.6-14.5C688.3,297.5,682.3,295.9,674.2,295.9z"></path>
&#x9;<path class="st0" d="M746.7,383.3c-7.5,0-13.4-1.9-17.5-5.8c-4.2-3.9-6.2-9-6.2-15.3s2.3-11.5,7-15.8c4.7-4.2,12.2-6.4,22.5-6.4&#xA;&#x9;&#x9;h19.4v-0.2c0-12-5.5-18-16.6-18c-4.6,0-8.5,0.8-11.7,2.5s-5.7,4-7.7,7l-9.8-7.9c3-4.7,7.1-8.3,12-10.9c5-2.5,10.6-3.8,17-3.8h1.6&#xA;&#x9;&#x9;c8.8,0,15.8,2.5,21.1,7.6c5.3,5,8,12.6,8,22.6v42.9h-13.7v-11.6c-2.8,4.2-6.3,7.4-10.6,9.7C757.2,382.2,752.3,383.3,746.7,383.3z&#xA;&#x9;&#x9; M749.9,370.6c5.5,0,10.1-1.3,13.8-3.7c3.7-2.5,6.4-5.9,8.2-10.2v-5.4H753c-5.6,0-9.6,0.9-12,2.7c-2.4,1.8-3.6,4.2-3.6,7.2&#xA;&#x9;&#x9;C737.4,367.5,741.5,370.6,749.9,370.6z"></path>
&#x9;<path class="st0" d="M805.7,381.9v-71.4H820v10.8c4.8-8.4,11.3-12.6,19.6-12.6c2.3,0,4.4,0.2,6.2,0.6v14.4&#xA;&#x9;&#x9;c-1.1-0.1-2.4-0.3-3.7-0.4s-2.6-0.1-3.8-0.1c-4.7,0-8.6,1.4-11.6,4.1s-5.3,6.4-6.8,11.1v43.4h-14.2V381.9z"></path>
&#x9;<path class="st0" d="M893.9,382.8c-8.5,0-14.9-2.1-19.4-6.4c-4.4-4.3-6.6-10.9-6.6-19.8v-33.7h-14v-12.4h14v-21.3h14.3v21.3h24.1&#xA;&#x9;&#x9;v12.4h-24.1v31.8c0,5.6,1.2,9.5,3.5,11.7s5.8,3.3,10.4,3.3c2.2,0,4.2-0.1,5.9-0.3c1.7-0.2,3.5-0.4,5.4-0.7v12.5&#xA;&#x9;&#x9;c-1.9,0.5-4,0.9-6.4,1.2C898.5,382.7,896.2,382.8,893.9,382.8z"></path>
&#x9;<path class="st0" d="M922.1,381.9v-71.4h14.3v11.9c2.6-4.2,5.9-7.6,9.8-10s8.5-3.6,13.7-3.6h1.6c7.9,0,14.1,2.8,18.6,8.4&#xA;&#x9;&#x9;s6.7,13.4,6.7,23.5V382h-14.3v-39.7c0-13.5-4.9-20.3-14.7-20.3h-1.4c-4.9,0-9,1.5-12.4,4.5s-5.9,6.8-7.6,11.4v44H922.1z"></path>
&#x9;<path class="st0" d="M1037,383.6c-6.9,0-12.9-1.6-18-4.7c-5.2-3.1-9.2-7.5-12.1-13.1s-4.3-12.1-4.3-19.5s1.4-13.9,4.3-19.5&#xA;&#x9;&#x9;s6.9-10,12.1-13.2s11.2-4.7,18-4.7h1.6c6.2,0,11.7,1.5,16.5,4.6c4.7,3.1,8.4,7.5,11.1,13.3s4,12.7,4,20.9v4.4h-52.8&#xA;&#x9;&#x9;c0.9,5.9,3.1,10.5,6.6,13.8c3.5,3.4,8.2,5,13.9,5h1.4c3.4,0,6.7-0.7,9.9-2.1c3.1-1.4,5.8-3.3,7.9-5.7l8.8,9.3&#xA;&#x9;&#x9;c-3.2,3.5-7.2,6.2-12,8.3c-4.7,2-9.8,3.1-15.3,3.1h-1.6V383.6z M1036.6,321.6c-5.1,0-9.3,1.7-12.7,5c-3.4,3.4-5.6,7.9-6.5,13.7&#xA;&#x9;&#x9;h38.4c-0.4-5.3-2.2-9.7-5.2-13.4c-3-3.6-7.2-5.4-12.6-5.4L1036.6,321.6L1036.6,321.6z"></path>
&#x9;<path class="st0" d="M1086.9,381.9v-71.4h14.3v10.8c4.8-8.4,11.3-12.6,19.6-12.6c2.3,0,4.4,0.2,6.2,0.6v14.4&#xA;&#x9;&#x9;c-1.1-0.1-2.4-0.3-3.7-0.4c-1.3-0.1-2.6-0.1-3.8-0.1c-4.7,0-8.6,1.4-11.6,4.1s-5.3,6.4-6.8,11.1v43.4h-14.2V381.9z"></path>
&#x9;<g>
&#x9;&#x9;<polygon class="st0" points="529,138.6 456.4,7.2 413.6,7.2 413.6,223.1 448.5,223.1 448.5,57.6 512.2,172.2 544.9,172.2 &#xA;&#x9;&#x9;&#x9;608.6,57.6 608.6,223.1 643.4,223.1 643.4,7.2 601.6,7.2 &#x9;&#x9;"></polygon>
&#x9;&#x9;<path class="st0" d="M792.8,69.3c-11.1-7.2-24.2-10.9-39.6-10.9c-15.4,0-29.1,3.6-40.9,10.8c-11.9,7.2-21.2,17.2-27.8,29.9&#xA;&#x9;&#x9;&#x9;c-6.7,12.7-10,27.4-10,43.9c0,16.3,3.4,30.8,10.3,43.5c6.8,12.6,16.4,22.5,28.6,29.7c12.2,7.1,26.4,10.7,42.6,10.7l0,0&#xA;&#x9;&#x9;&#x9;c26.7,0,49.3-8.4,67.7-25.3l-18.5-22.7c-6.6,6.3-13.6,10.9-21.1,14s-16.4,4.6-26.8,4.6c-13,0-23.7-3.8-32.2-11.3&#xA;&#x9;&#x9;&#x9;c-8.5-7.6-13.8-17.9-16-31.1h118.3v-9.6c0-17.6-3-32.9-8.9-46C812.3,86.7,803.8,76.5,792.8,69.3z M708.9,129.8&#xA;&#x9;&#x9;&#x9;c2.1-12.9,7-23.1,14.7-30.7c7.8-7.6,17.4-11.4,28.9-11.4c11.8,0,21.4,3.7,28.7,11.2s11.5,17.8,12.5,30.9H708.9z"></path>
&#x9;&#x9;<path class="st0" d="M903.1,15.1h-33.6v47.2h-32.1v28.5h32.1v76.3c0,39.7,18.1,59.5,54.4,59.5c5,0,10.1-0.3,15-1.1&#xA;&#x9;&#x9;&#x9;c4.4-0.6,8.7-1.6,12.9-2.8v-28.2c-3.7,0.6-7.1,1.1-10.2,1.5s-6.8,0.5-11.3,0.5c-10,0-17-2.6-21.1-7.7S903,175.1,903,163V90.7h48.7&#xA;&#x9;&#x9;&#x9;V62.2H903L903.1,15.1L903.1,15.1z"></path>
&#x9;&#x9;<path class="st0" d="M1094,62.2v20.7c-5.7-7.7-13.1-13.9-21.7-18.1c-8.7-4.3-18.6-6.4-29.6-6.4c-14.6,0-27.5,3.6-38.8,10.8&#xA;&#x9;&#x9;&#x9;S983.8,86.3,977.5,99c-6.4,12.6-9.6,27.2-9.6,43.6c0,16.3,3.1,30.9,9.4,43.6s14.9,22.7,25.8,29.9c10.9,7.2,23.5,10.9,37.7,10.9&#xA;&#x9;&#x9;&#x9;c11.5,0,21.8-2.3,30.8-6.9s16.5-11.1,22.4-19.5v22.5h33V62.2H1094z M1075.8,188.4c-8.1,5.3-17.4,8-27.8,8&#xA;&#x9;&#x9;&#x9;c-14.1,0-25.2-4.8-33.5-14.5c-8.2-9.7-12.3-22.8-12.3-39.3c0-16.4,4.3-29.5,12.8-39.2s20-14.5,34.4-14.5c10.2,0,19.1,2.6,26.9,7.9&#xA;&#x9;&#x9;&#x9;c7.8,5.3,13.4,12.5,17,21.7v48.3C1089.8,175.8,1083.9,183,1075.8,188.4z"></path>
&#x9;&#x9;<path class="st0" d="M341.9,147.9c0-38.8-9.7-76.3-29.7-106.1C293.9,14.6,270.1,0.1,245,0.1c-14.9,0-29.7,6.7-43.5,18.6&#xA;&#x9;&#x9;&#x9;c-9.3,8.1-17.9,18.3-25.9,29.1c-9.9-12.5-19-22-27.9-29.2C130.9,4.8,114.7,0,98.5,0C70.5,0,46,18.2,29.1,44.3l0,0l0,0&#xA;&#x9;&#x9;&#x9;C10,73.7,0,111.8,0,148.4c0,20.1,4,37.7,12.1,51.2l0,0C22,216.1,38,227,63.3,227c21.3,0,37.5-9.6,56.5-34.8&#xA;&#x9;&#x9;&#x9;c10.8-14.4,16.3-23.2,37.9-61.5l10.8-19.1c0.9-1.6,1.8-3.1,2.6-4.7c0.9,1.4,1.7,2.9,2.6,4.3l30.7,51.2&#xA;&#x9;&#x9;&#x9;c10.3,17.2,23.7,36.4,35.2,47.2c14.9,14.1,28.4,17.4,43.6,17.4c22.9,0,37.2-11.4,45-23.4c0.5-0.8,1-1.6,1.5-2.4&#xA;&#x9;&#x9;&#x9;c0.3-0.5,0.6-1,0.9-1.6c0.2-0.4,0.4-0.7,0.6-1.1C337.9,185.6,341.9,169.4,341.9,147.9z M139.1,102.5c-10.8,16.6-26.8,43-40.4,61.8&#xA;&#x9;&#x9;&#x9;c-17,23.5-25.8,25.9-35.4,25.9c-7.5,0-14.8-3.4-19.7-11.3c-3.7-6.1-6.6-16.1-6.6-29.1c0-31.6,9-64.6,23.6-86.7l0,0&#xA;&#x9;&#x9;&#x9;C71,47.4,83.4,37.2,97.9,37.2c18,0,29.3,11.3,38.1,20.6c4.4,4.7,10.5,12.4,17.6,22.5L139.1,102.5z M259.4,175.9&#xA;&#x9;&#x9;&#x9;c-7.1-8.6-19.1-26.7-40.3-62.1l-8.8-14.6c-6.3-10.4-12.2-19.8-17.9-28.3c1-1.6,2-3.1,3-4.6c16-23.7,30.2-37.1,47.8-37.1&#xA;&#x9;&#x9;&#x9;c16.3,0,31.2,10.8,42.6,28.5c16.1,24.9,23.5,59.8,23.5,91.2c0,22-5.2,41.3-26.2,41.3l0,0C274.8,190.2,268.5,186.9,259.4,175.9z"></path>
&#x9;</g>
</g>
</svg>