<svg xmlns="http://www.w3.org/2000/svg" id="Layer_1" data-name="Layer 1" viewBox="0 0 498.47 96.68">
  <defs>
    <style>
      .cls-1 {
        fill: #fff;
      }

      .cls-2 {
        fill: #ff7500;
      }
    </style>
  </defs>
  <rect class="cls-2" x="83.63" y="13.91" width="13.44" height="8.26"/>
  <g>
    <polygon class="cls-1" points="6.51 13.91 30.42 82.2 54.41 82.2 77.88 13.91 63.58 13.91 44.52 69.66 39.78 69.66 21.02 13.91 6.51 13.91"/>
    <rect class="cls-1" x="83.63" y="26.87" width="13.44" height="55.33"/>
    <path class="cls-1" d="m149.56,44.25h-12.35v-2.1c0-1.35-1.87-3.32-5.58-3.32h-14.27c-1.59,0-3.05,1.4-2.9,3.19s1.24,3.14,4.56,3.84,11.96,1.95,19.38,4.23,11.33,6.26,11.93,12.35c.74,7.52-1.71,14.52-7.63,17.33s-19.75,3.82-27.18,2.02c-6.65-1.61-12.92-5.71-13.33-18.05h12.31v1.73c0,.69-.33,3.93,6.05,4.16s7.59,0,11.33,0,6.23-1.58,6.39-4.23-2.27-3.87-7.46-4.98-17.36-2.77-22.17-5.78-6.86-7.5-6.45-14.97,5.76-13.12,19.5-13.54c13.75-.41,28.38,1.4,27.86,18.13Z"/>
    <path class="cls-1" d="m155.63,26.87v33.96c0,4.2,1.58,10.08,5.24,14.59s8.71,7.16,18.81,7.33c9.2.16,12.65-2.21,15.14-4.37l.77.03v3.78h13.67V26.87h-13.62v31.52c0,3.86-.75,10.82-7.53,11.26s-14.52,1.32-17.53-5.26c-1.73-3.77-1.35-11.97-1.35-14.91v-22.62h-13.61Z"/>
    <path class="cls-1" d="m257.9,26.87v6.05h-1.16s-4.49-6.9-16.55-6.64c-12.06.26-24.95,8.51-25.57,26.66s10.51,29.49,24.21,29.82c12.39.29,17.12-5.33,18.09-6.65h.99v6.09h13.16V26.87h-13.16Zm-.47,23.86v6.92c0,2.8-.42,11-11.03,11.83-4.93.39-8.97.38-11.87-.99-2.79-1.32-5.51-4.21-6.63-7.58-2.07-6.29-.31-14.56,2.52-17.64,2.84-3.08,6.14-4.26,11.72-4.26h4.78c1.99,0,6.55,1.24,9.16,6.02,1.42,2.59,1.35,4.08,1.35,5.71Z"/>
    <rect class="cls-1" x="276.55" y="13.91" width="13.52" height="68.29"/>
  </g>
  <path class="cls-2" d="m434.7,42.29c-4.36-12.24-15.16-16.22-25.43-15.91-10.27.31-14.99,6.46-14.99,6.46h-.73V13.91h-7.64v68.29h7.78v-6.43c3.37,4.24,9.55,6.87,16.55,7,4.7.09,9.81-.8,14.52-3.6,11.72-6.95,14.3-24.64,9.94-36.88Zm-9.58,26.65c-2.97,4.01-6.4,5.6-8.78,5.6s-10.18.18-11.86,0c-1.75-.19-6.22-2.1-8.3-5.32-2.08-3.22-2.63-7.26-2.63-9.96v-7.05c0-2.7-.31-8.06,2.37-12.14,3.77-5.74,9.8-6.33,12.88-6.33s9.23-.28,12.03,1.69c2.25,1.58,7.87,7.28,8.23,15.27.36,7.99-.97,14.22-3.94,18.23Z"/>
  <path class="cls-2" d="m486.75,35.3c-6.12-9.13-20.03-11.34-31.23-7-11.48,4.44-13.76,19.18-13.56,26.72.21,7.54,2.2,25.06,20.87,27.39,18.67,2.33,25.73-9.49,28.27-18h-7.83s-1.92,6.07-6.35,8.87c-4.43,2.8-16.2,2.92-20.51,0-4.03-2.73-6.51-7.53-6.83-17.27h42.31s.97-11.57-5.15-20.7Zm-36.91,13.69c.84-6.97,3.41-11.24,6.66-13.38,4.1-2.7,14.18-1.92,16.81-1.56,2.41.34,9.15,2.32,10.48,14.94h-33.95Z"/>
  <polygon class="cls-2" points="306.02 13.91 329.46 82.2 344.3 82.2 367.71 13.91 359.79 13.91 338.54 75.66 335.02 75.66 314.11 13.91 306.02 13.91"/>
  <g>
    <rect class="cls-1" x="372.86" y="13.91" width="7.68" height="7.63"/>
    <rect class="cls-2" x="372.86" y="26.87" width="7.68" height="55.33"/>
  </g>
</svg>
